<?xml version="1.0" encoding="utf-8"?>
<svg viewBox="0 0 575 458" xmlns="http://www.w3.org/2000/svg" xmlns:bx="https://www.boxy-svg.com/bx">
  <defs>
    <style id="bx-google-fonts">@import url(https://fonts.googleapis.com/css?family=Roboto:100,100italic,300,300italic,400,400italic,500,500italic,700,700italic,900,900italic);</style>
  </defs>
  <path d="M 444.785 305.771 C 448.202 298.694 452.609 292.578 457.468 287.26 C 465.281 278.71 468.573 276.443 480.154 271.476 C 490.34 267.107 496.413 266.911 507.506 267.005 C 518.25 267.096 533.711 270.18 544.114 276.532 C 552.616 281.723 552.627 282.601 560.15 289.27 C 563.01 291.805 574.215 306.256 574.215 306.256 C 574.215 306.256 531.687 306.61 444.785 305.771 Z" style="stroke: rgb(46, 167, 139); fill: rgb(85, 211, 218);" transform="matrix(0.999918, 0.012779, -0.012779, 0.999918, 3.736844, -6.469814)" bx:origin="0.485 0.5"/>
  <path d="M 0 0 L 0 0 L 0 0 L 0 0 Z" style="fill: rgb(216, 216, 216);" bx:shape="triangle 0 0 0 0 0.5 0 1@41ae5ad3"/>
  <path d="M 524.263 140.348 L 567.922 140.476 C 567.922 140.476 567.923 152.119 564.748 164.643 C 561.573 177.167 556.104 184.928 556.104 184.928 C 556.104 184.928 519.412 158.117 519.413 158.117 C 519.413 158.117 522.058 155.294 523.47 150.003 C 524.882 144.712 523.91 140.172 524.263 140.348 Z" style="stroke: black; fill: rgb(186, 218, 85);"/>
  <path d="M 483.693 173.905 L 510.152 137.566 C 510.152 137.566 518.325 141.095 528.322 151.855 C 538.319 162.615 541.301 171.435 541.374 171.435 C 541.374 171.435 494.099 186.959 494.1 186.959 C 494.1 186.959 491.806 182.019 489.161 179.021 C 486.516 176.023 483.34 173.729 483.693 173.905 Z" style="stroke: black; fill: rgb(186, 218, 85);" transform="matrix(0, 1, -1, 0, 693.140484, -324.870495)" bx:origin="0.5 0.5"/>
  <path d="M 489.334 169.927 C 496.385 171.202 505.407 169.668 505.407 169.668 L 521.344 216.689 C 521.344 216.689 512.763 221.509 498.975 221.414 C 485.187 221.319 475.257 217.267 475.257 217.075 C 475.257 216.883 489.289 169.919 489.334 169.927 Z" style="stroke: black; fill: rgb(218, 85, 194);"/>
  <path d="M 476.221 159.321 C 476.992 160.959 478.322 163.038 481.524 165.78 C 484.726 168.522 488.755 169.83 488.755 169.83 L 474.678 216.786 C 474.678 216.786 461.566 210.711 454.43 203.865 C 447.294 197.019 440.835 185.739 440.835 185.739 L 476.221 159.321 Z" style="stroke: black; fill: rgb(74, 93, 10);"/>
  <path d="M 427.96 139.665 L 470.73 140.333 C 470.73 140.333 470.65 145.025 472.068 150.198 C 473.38 154.984 475.911 158.793 475.911 158.793 L 440.323 185.108 C 440.323 185.108 434.896 176.87 431.636 165.561 C 428.387 154.289 427.96 139.999 427.96 139.665 Z" style="stroke: black; fill: rgb(21, 24, 66);"/>
  <path d="M 471.304 139.931 L 523.593 140.425 C 523.593 140.425 524.05 147.448 522.192 152.035 C 520.349 156.584 518.487 160.353 512.887 164.634 C 507.287 168.915 502.183 170.316 496.831 170.316 C 493.126 170.316 487.525 170.234 481.926 165.128 C 476.327 160.022 474.515 155.329 473.115 151.459 C 471.715 147.589 471.633 146.025 471.386 143.966 C 471.139 141.907 471.222 140.013 471.304 139.931 Z" style="stroke: black; fill: rgb(230, 236, 212);"/>
  <path d="M 479.075 219.319 L 478.573 270.73 C 478.573 270.73 485.395 268.091 489.415 267.337 C 493.435 266.583 499.71 266.362 502.6 266.193 C 505.49 266.024 509.112 265.904 513.811 266.43 C 518.51 266.956 524.046 268.18 524.046 268.18 L 524.811 215.818 C 524.811 215.818 519.009 218.518 515.952 219.424 C 510.497 221.04 505.755 221.812 500.435 222.084 C 495.115 222.356 489.761 221.695 486.235 221.02 C 482.709 220.345 479.327 219.57 479.075 219.319 Z" style="stroke: black; fill: rgb(46, 77, 123);"/>
  <path d="M 1.203 307.067 L 105.355 308.053 L 52.111 456.544 L 1.203 307.067 Z" style="stroke: black; fill: rgb(91, 187, 113);"/>
  <path d="M 0.504 306.665 L 0.483 457.5 L 51.408 457.511 L 0.504 306.665 Z" style="stroke: black; fill: rgb(91, 187, 113);"/>
  <path d="M 52.806 457.495 L 105.811 307.779 L 135.001 401.277 L 135.457 457.496 L 52.806 457.495 Z" style="stroke: black; fill: rgb(91, 187, 113);"/>
  <path d="M 106.474 307.779 L 206.705 309.337 L 135.677 400.181 L 106.474 307.779 Z" style="stroke: black; fill: rgb(91, 187, 113);"/>
  <path d="M 136.369 400.821 L 207.028 310.138 L 206.339 400.954 L 136.369 400.821 Z" style="stroke: black; fill: rgb(91, 187, 113);"/>
  <path d="M 233.059 297.745 L 263.617 354.3 C 263.617 354.3 289.614 291.36 288.702 291.36 C 287.79 291.36 263.617 236.174 263.617 236.174 L 233.059 297.745 Z" style="stroke: black; fill: rgb(9, 119, 9);"/>
  <path d="M 288.702 290.904 L 310.594 235.262 L 339.783 288.624 C 339.783 288.624 317.891 357.037 317.891 356.58 C 317.891 356.123 289.158 291.36 288.702 290.904 Z" style="stroke: black; fill: rgb(98, 134, 40);"/>
  <path d="M 262.323 400.97 L 316.979 401.733 L 317.435 357.493 L 289.158 292.272 L 264.073 354.3 L 262.323 400.97 Z" style="stroke: black; fill: rgb(179, 19, 56);"/>
  <path d="M 232.147 296.377 L 233.096 400.886 L 261.373 400.942 L 263.161 354.756 L 232.147 296.377 Z" style="stroke: black; fill: rgb(149, 187, 24);"/>
  <path d="M 207.098 401.047 L 232.11 400.93 L 232.147 296.377 L 208.61 251.771 L 207.098 401.047 Z" style="stroke: black; fill: rgb(119, 112, 14);"/>
  <path d="M 208.405 0.509 L 208.349 79.223 L 258.253 78.886 C 258.253 78.886 262.276 74.58 264.997 73.153 C 267.718 71.726 270.235 70.15 274.438 69.107 C 278.641 68.064 283.88 67.758 283.88 67.758 L 283.531 0.503 L 208.405 0.509 Z" style="stroke: black; fill: rgb(114, 134, 45);"/>
  <path d="M 284.165 67.481 L 284.526 0.487 L 339.047 0.468 L 339.587 90.429 L 322.396 90.563 C 322.396 90.563 320.231 86.836 318.068 84.192 C 315.905 81.548 313.655 79.59 311.816 77.82 C 309.977 76.05 306.395 74.079 302.439 72.049 C 298.483 70.019 293.783 68.563 291.258 68.082 C 288.733 67.601 283.805 67.361 284.165 67.481 Z" style="stroke: black; fill: rgb(85, 218, 205);"/>
  <path d="M 345.157 165.285 L 382.915 165.285 L 363.385 187.287 L 345.157 165.285 Z" style="stroke: black; fill: rgb(185, 145, 138);" bx:origin="0.5 0.5"/>
  <path d="M 363.385 188.068 L 383.175 164.893 L 382.915 231.554 C 382.915 231.554 377.389 231.377 374.752 232.006 C 372.115 232.635 368.976 233.889 366.966 235.145 C 364.956 236.401 363.074 238.536 363.074 238.536 C 363.074 238.536 363.074 188.054 363.385 188.068 Z" style="stroke: black; fill: rgb(177, 44, 32);"/>
  <path d="M 310.347 233.913 L 309.562 166.416 L 344.684 165.631 L 362.932 187.803 L 363.128 238.622 C 363.128 238.622 360.893 240.736 359.154 243.272 C 357.415 245.808 356.496 247.639 355.567 249.697 C 354.62 251.796 353.514 255.3 353.514 255.3 C 353.514 255.3 322.512 255.104 322.316 255.104 C 322.12 255.104 310.151 233.913 310.347 233.913 Z" style="stroke: black; fill: rgb(169, 212, 12);"/>
  <path d="M 262.32 75.362 L 263.299 158.592 C 263.299 158.592 272.591 164.071 286.473 163.814 C 300.355 163.557 304.356 159.027 307.908 157.1 C 311.46 155.173 316.96 150.211 322.376 140.64 C 327.792 131.069 328.198 122.978 328.198 122.978 C 328.198 122.978 324.266 128.961 320.59 130.574 C 316.914 132.187 311.519 132.242 306.948 130.093 C 302.377 127.944 299.529 122.036 299.529 118.446 C 299.529 114.856 300.058 110.748 303.1 107.537 C 306.142 104.326 310.402 103.175 312.911 102.967 C 315.42 102.759 318.632 102.846 322.204 104.891 C 325.776 106.936 328.852 112.054 328.852 112.054 C 328.852 112.054 326.911 101.455 324.008 94.293 C 321.105 87.131 315.247 79.844 308.994 75.362 C 302.741 70.88 292.278 67.373 285.081 67.442 C 277.884 67.511 275.65 68.51 270.463 70.277 C 265.276 72.044 261.667 75.688 262.32 75.362 Z" style="stroke: black; fill: rgb(90, 113, 15);"/>
  <path d="M 345.994 90.645 L 345.923 164.775 L 309.524 165.81 L 309.397 156.883 C 309.397 156.883 313.713 153.092 316.02 150.432 C 318.327 147.772 322.679 141.888 325.866 134.265 C 329.053 126.642 329.153 122.24 329.274 120.417 C 329.395 118.594 329.684 114.645 328.918 110.193 C 328.152 105.741 326.365 100.225 326 99.01 C 325.635 97.795 323.07 90.506 323.07 90.506 L 345.994 90.645 Z" style="stroke: black; fill: rgb(202, 99, 192);"/>
  <path d="M 261.857 75.731 L 262.849 158.502 C 262.849 158.502 258.441 156.408 257.118 154.535 C 255.795 152.662 252.299 148.718 250.175 145.387 C 248.051 142.056 245.778 137.223 244.96 134.412 C 244.142 131.601 242.744 123.569 242.68 118.384 C 242.616 113.199 243.347 107.921 244.676 103.297 C 246.005 98.673 247.536 94.913 250.03 90.325 C 252.524 85.737 254.978 82.436 257.008 80.029 C 259.038 77.622 261.637 75.621 261.857 75.731 Z" style="stroke: black; fill: rgb(130, 59, 33);"/>
  <path d="M 263.558 234.933 L 310.055 234.933 L 288.57 290.169 L 263.558 234.933 Z" style="stroke: black; fill: rgb(125, 117, 14);"/>
  <path d="M 318.132 356.802 C 318.132 356.802 317.424 401.755 317.542 401.755 C 317.66 401.755 336.066 401.755 336.066 401.755 L 336.892 299.344 L 318.132 356.802 Z" style="stroke: black; fill: rgb(125, 117, 14);"/>
  <path d="M 336.272 401.482 L 360.791 401.482 L 362.266 281.285 C 362.266 281.285 358.212 276.794 356.306 273.607 C 354.4 270.42 353.559 267.215 353.168 263.278 C 352.777 259.341 353.417 255.66 353.417 255.66 L 322.262 255.844 L 340.144 288.106 L 337.378 298.614 L 336.272 401.482 Z" style="stroke: black; fill: rgb(125, 117, 14);"/>
  <path d="M 211.483 255.457 L 253.618 255.306 L 233.157 296.834 L 211.483 255.457 Z" style="stroke: black; fill: rgb(15, 54, 117);"/>
  <path d="M 364.156 402.081 L 419.801 401.986 L 393.582 428.728 L 364.156 402.081 Z" style="stroke: black; fill: rgb(73, 127, 165);"/>
  <path d="M 393.184 428.827 L 364.946 457.487 L 418.753 457.491 L 393.184 428.827 Z" style="stroke: black; fill: rgb(132, 185, 40);"/>
  <path d="M 363.56 402.384 L 364.226 456.826 L 392.787 428.728 L 363.56 402.384 Z" style="stroke: black; fill: rgb(132, 185, 40);"/>
  <path d="M 420.599 402.144 C 420.125 401.986 394.178 428.728 394.278 428.728 C 394.378 428.728 419.379 456.715 419.379 456.715 L 420.599 402.144 Z" style="stroke: black; fill: rgb(218, 85, 174);"/>
  <path d="M 420.333 457.491 L 463.46 457.503 L 468.66 306.034 L 421.591 401.386 L 420.333 457.491 Z" style="stroke: black; fill: rgb(185, 51, 24);"/>
  <path d="M 362.308 280.586 L 361.315 401.138 L 420.599 401.634 L 362.308 280.586 Z" style="stroke: black; fill: rgb(185, 51, 24);"/>
  <path d="M 374.462 304.895 L 467.434 306.288 L 421.095 400.641 L 374.462 304.895 Z" style="stroke: black; fill: rgb(186, 218, 85);"/>
  <path d="M 373.718 304.151 L 443.419 304.973 C 443.419 304.973 446.224 299.805 447.951 297.085 C 449.678 294.365 453.682 289.498 453.682 289.498 L 409.309 267.945 C 409.309 267.945 406.066 274.77 404.826 276.755 C 403.586 278.74 400.679 281.956 398.447 283.537 C 396.215 285.118 392.945 286.96 389.721 288.037 C 386.497 289.114 381.505 289.489 378.325 289.113 C 375.145 288.737 371.114 287.266 368.925 286.026 C 366.736 284.786 363.3 281.33 363.3 281.33 L 373.718 304.151 Z" style="stroke: black; fill: rgb(4, 101, 23);"/>
  <path d="M 170.297 161.991 L 206.904 162.312 L 192.454 184.79 L 170.297 161.991 Z" style="stroke: black; fill: rgb(62, 31, 162);"/>
  <path d="M 170.297 162.954 L 170.297 225.571 C 170.297 225.571 175.868 225.902 178.967 226.534 C 182.066 227.166 184.404 227.871 186.622 229.093 C 188.84 230.315 193.417 233.92 193.417 233.92 L 192.775 185.753 L 170.297 162.954 Z" style="stroke: black; fill: rgb(6, 41, 4);"/>
  <path d="M 193.045 185.166 L 207.51 162.193 L 263.423 162.315 L 263.787 235.123 L 253.82 254.693 L 210.976 254.968 C 210.976 254.968 208.184 250.302 206.78 247.765 C 205.447 245.355 203.863 243.268 200.095 239.499 C 196.327 235.73 194.261 234.759 194.139 234.516 C 194.017 234.273 193.045 185.409 193.045 185.166 Z" style="stroke: black; fill: rgb(236, 213, 14);"/>
  <path d="M 208.407 79.893 L 208.035 161.511 L 263.44 162.008 L 263.192 159.523 C 263.192 159.523 258.098 155.299 254.247 151.076 C 250.396 146.853 246.545 141.014 244.557 135.547 C 242.569 130.08 241.577 119.521 242.073 114.056 C 242.569 108.591 243.439 105.359 245.303 99.769 C 247.167 94.179 247.291 94.179 249.154 90.825 C 251.017 87.471 251.515 86.726 252.757 84.862 C 253.999 82.998 256.98 79.024 256.98 79.024 L 208.407 79.893 Z" style="stroke: black; fill: rgb(15, 54, 117);"/>
  <path d="M 263.813 159.399 L 264.31 234.308 L 310.026 234.432 L 308.908 157.411 C 308.908 157.411 306.388 159.3 303.034 160.91 C 299.68 162.52 294.664 163.577 290.294 164.14 C 285.548 164.751 283.445 164.582 278.74 164.091 C 274.035 163.6 271.957 162.802 269.527 161.883 C 267.097 160.964 263.813 159.399 263.813 159.399 Z" style="stroke: black; fill: rgb(171, 9, 41);"/>
  <path d="M 574.505 36.986 C 574.505 36.986 569.963 41.821 566.957 45.767 C 563.951 49.713 558.502 57.041 555.871 62.302 C 553.24 67.563 550.986 74.139 549.483 80.151 C 547.98 86.163 547.139 93.508 547.507 99.128 C 547.875 104.929 548.405 106.734 549.581 111.341 C 550.757 115.948 553.053 121.299 556.059 126.184 C 559.065 131.069 561.125 134.089 564.138 137.179 C 567.151 140.269 567.708 139.9 567.896 139.9 C 568.084 139.9 574.51 139.921 574.51 139.921 L 574.505 36.986 Z" style="stroke: black; fill: rgb(164, 202, 37);"/>
  <path d="M 427.816 36.449 L 573.941 36.237 C 573.941 36.237 571.043 39.73 568.2 42.9 C 565.357 46.07 560.546 52.959 559.891 54.052 C 559.236 55.145 554.971 62.361 554.971 62.361 L 446.949 63.127 C 446.949 63.127 443.56 55.583 441.592 52.412 C 439.624 49.241 436.562 45.306 433.938 42.572 C 431.314 39.838 427.925 36.449 427.816 36.449 Z" style="stroke: black; fill: rgb(27, 162, 124);"/>
  <path d="M 427.378 36.258 L 427.515 139.168 C 427.515 139.168 432.888 134.792 435.715 131.651 C 439.518 127.425 443.778 120.992 446.785 112.928 C 449.792 104.864 450.475 101.311 451.022 94.068 C 451.569 86.825 451.842 82.452 450.475 75.481 C 449.108 68.51 447.195 64.549 445.419 60.312 C 443.643 56.075 440.362 50.745 436.535 46.098 C 432.708 41.451 427.105 36.258 427.378 36.258 Z" style="stroke: black; fill: rgb(64, 6, 18);"/>
  <path d="M 427.515 139.305 L 565.305 139.513 C 565.305 139.513 563.195 137.754 557.348 128.372 C 551.501 118.99 549.396 112.203 549.422 112.245 L 447.605 111.698 C 447.605 111.698 445.994 117.718 439.815 126.595 C 433.636 135.472 427.102 139.172 427.515 139.305 Z" style="stroke: black; fill: rgb(85, 185, 218);"/>
  <path d="M 447.605 63.728 L 554.888 63.045 C 554.888 63.045 551.882 69.468 550.515 74.251 C 549.148 79.034 547.371 88.601 547.371 88.601 L 451.978 88.191 C 451.978 88.191 451.979 81.768 451.158 76.301 C 450.337 70.834 447.468 63.865 447.605 63.728 Z" style="stroke: black; fill: rgb(50, 93, 65);"/>
  <path d="M 451.842 88.738 C 451.842 88.738 451.568 95.981 450.885 100.081 C 450.202 104.181 447.878 111.288 447.878 111.288 L 548.875 111.561 C 548.875 111.561 547.235 106.094 546.825 100.901 C 546.415 95.708 547.098 89.011 547.098 89.011 L 451.842 88.738 Z" style="stroke: black; fill: rgb(136, 87, 9);"/>
  <path d="M 524.643 245.823 L 574.492 246.84 L 574.5 140.879 L 568.861 140.892 C 568.861 140.892 568.307 146.796 566.907 157.102 C 565.507 162.782 564.448 169.003 558.847 180.37 C 553.246 191.737 544.862 200.968 539.937 205.368 C 535.012 209.768 531.891 211.934 530.165 212.925 C 528.439 213.916 525.137 215.482 525.137 215.482 L 524.643 245.823 Z" style="stroke: black; fill: rgb(27, 162, 124);"/>
  <path d="M 525.041 246.207 L 574.491 247.824 L 574.496 306.18 C 574.496 306.18 568.78 299.092 566.196 296.209 C 563.612 293.326 558.343 287.262 556.156 285.572 C 553.969 283.882 551.881 281.597 547.507 278.813 C 543.133 276.029 539.455 274.24 536.871 272.848 C 534.287 271.456 533.391 271.158 529.614 269.866 C 525.837 268.574 524.544 268.474 524.544 268.474 L 525.041 246.207 Z" style="stroke: black; fill: rgb(86, 18, 5);"/>
  <path d="M 426.568 231.285 L 427.321 139.799 C 427.321 139.799 429.95 161.423 432.15 168.465 C 434.35 175.507 439.192 183.869 443.373 190.69 C 447.554 197.511 451.631 202.04 455.812 205.561 C 459.993 209.082 465.545 212.674 469.33 214.62 C 473.115 216.566 478.942 219.182 478.942 219.182 L 478.281 246.249 L 406.763 245.809 C 406.763 245.809 402.028 239.738 399.941 238.107 C 397.854 236.476 394.516 234.066 391.172 232.892 C 387.828 231.718 383.217 231.285 383.217 231.285 L 426.568 231.285 Z" style="stroke: black; fill: rgb(18, 4, 74);"/>
  <path d="M 478.251 246.575 L 406.7 246.157 C 406.7 246.157 407.272 247.305 408.267 249.916 C 409.262 252.527 409.818 255.19 410.072 257.747 C 410.326 260.304 410.281 261.898 409.967 263.986 C 409.653 266.074 409.237 267.144 409.237 267.144 L 454.023 289.005 C 454.023 289.005 456.328 286.283 458.622 283.954 C 460.917 281.625 464.324 278.945 466.575 277.451 C 468.826 275.957 470.903 274.756 472.591 273.85 C 474.279 272.944 478.147 271.32 478.147 271.32 L 478.251 246.575 Z" style="stroke: black; fill: rgb(230, 236, 212);"/>
  <path d="M 0.501 39.292 L 0.477 172.396 C 0.477 172.396 4.417 169.515 8.605 165.87 C 12.793 162.225 18.268 156.376 23.158 147.495 C 28.048 138.614 32.072 129.304 33.892 118.206 C 35.712 107.108 35.166 95.285 33.346 86.371 C 31.526 77.457 28.252 69.998 22.795 62.721 C 17.338 55.444 10.971 48.349 8.06 45.802 C 5.149 43.255 0.501 39.292 0.501 39.292 Z" style="stroke: black; fill: rgb(171, 58, 151);"/>
  <path d="M 95.107 172.874 L 94.198 38.435 C 94.198 38.435 99.833 41.703 104.021 45.348 C 108.209 48.993 113.684 54.842 118.574 63.723 C 123.464 72.604 127.488 81.914 129.308 93.012 C 131.128 104.11 130.582 115.933 128.762 124.847 C 126.942 133.761 123.668 141.22 118.211 148.497 C 112.754 155.774 106.387 162.869 103.476 165.416 C 100.565 167.963 94.925 173.42 95.107 172.874 Z" style="stroke: black; fill: rgb(218, 85, 194);" transform="matrix(-1, 0, 0, -1, 225.326003, 211.855013)" bx:origin="0.5 0.5"/>
  <path d="M 1.259 38.73 L 130.31 38.707 C 130.31 38.707 120.304 46.53 114.483 53.261 C 108.662 59.992 102.658 69.452 102.658 69.452 L 27.525 69.816 C 27.525 69.816 21.703 60.174 15.7 53.443 C 9.697 46.712 1.259 38.73 1.259 38.73 Z" style="stroke: black; fill: rgb(125, 123, 11);"/>
  <path d="M 27.707 70.18 L 102.476 69.816 C 102.476 69.816 98.304 78.42 96.661 85.515 C 95.018 92.61 94.29 103.653 94.29 103.653 L 35.711 103.653 C 35.711 103.653 35.633 94.883 33.962 86.841 C 32.291 78.799 27.889 70.543 27.707 70.18 Z" style="stroke: black; fill: rgb(41, 125, 11);"/>
  <path d="M 29.402 135.801 L 100.569 135.801 C 100.569 135.801 97.251 127.42 95.802 120.273 C 94.353 113.126 94.286 103.93 94.286 103.93 L 35.799 103.93 C 35.799 103.93 35.744 112.342 34.308 119.579 C 32.872 126.816 29.173 135.915 29.402 135.801 Z" style="stroke: black; fill: rgb(41, 125, 11);"/>
  <path d="M 1.432 172.867 L 130.561 173.576 C 130.561 173.576 121.09 167.291 115.578 161.379 C 111.664 156.816 108.591 152.629 105.851 147.789 C 103.111 142.949 100.019 136.169 100.019 136.169 L 29.408 136.309 C 29.408 136.309 24.734 145.965 22.368 149.905 C 20.002 153.845 16.162 159.322 11.423 164.044 C 6.684 168.766 1.432 172.867 1.432 172.867 Z" style="stroke: black; fill: rgb(171, 58, 151);"/>
  <path d="M 0.787 306.167 L 115.614 307.306 C 115.614 307.306 111.3 299.813 106.369 294.765 C 101.438 289.717 98.432 285.649 91.806 281.313 C 85.18 276.977 82.763 276.148 77.459 274.505 C 72.155 272.862 66.504 272.332 59.367 272.648 C 52.23 272.964 46.548 274.221 41.985 275.633 C 37.422 277.045 30.733 280.078 24.3 283.74 C 17.867 287.402 10.792 292.742 6.921 296.836 C 3.05 300.93 0.787 306.167 0.787 306.167 Z" style="stroke: black; fill: rgb(92, 111, 28);"/>
  <path d="M 43.793 243.144 L 43.097 274.649 C 43.097 274.649 51.046 272.819 54.103 272.441 C 57.16 272.063 61.421 271.686 66.298 272.061 C 71.175 272.436 76.275 273.908 76.275 273.908 L 76.402 246.89 C 76.402 246.89 72.151 247.55 67.51 247.613 C 62.869 247.676 56.375 247.433 51.726 246.167 C 47.077 244.901 43.621 242.801 43.793 243.144 Z" style="stroke: black; fill: rgb(26, 80, 74);"/>
  <path d="M 0.489 253.57 L 0.5 306.667 C 0.5 306.667 3.496 298.454 10.432 292.391 C 17.368 286.328 22.693 283.763 27.433 281.219 C 32.173 278.675 42.724 274.557 42.724 274.557 L 43.119 253.682 L 0.489 253.57 Z" style="stroke: black; fill: rgb(191, 20, 128);"/>
  <path d="M 104.667 291.67 C 104.827 291.67 107.282 294.557 109.603 297.563 C 111.924 300.569 115.764 307.008 115.764 307.008 L 163.908 308.298 C 163.908 308.298 155.031 307.222 148.822 303.312 C 142.613 299.402 138.794 295.675 136.28 292.413 C 133.766 289.151 131.507 285.093 130.547 282.011 C 129.587 278.929 128.284 272.352 128.284 272.352 L 104.667 291.67 Z" style="stroke: black; fill: rgb(157, 204, 2);"/>
  <path d="M 76.882 253.399 L 76.794 273.301 C 76.794 273.301 83.222 275.735 85.528 276.921 C 87.834 278.107 89.435 279.009 91.967 280.581 C 94.499 282.153 98.319 285.257 99.663 286.742 C 101.007 288.227 103.768 291.371 103.855 291.371 C 103.942 291.371 128.035 271.555 128.035 271.555 C 128.035 271.555 127.819 269.894 127.87 267.586 C 127.921 265.278 128.163 262.474 128.646 259.986 C 129.129 257.498 129.868 254.097 129.868 254.097 L 76.882 253.399 Z" style="stroke: black; fill: rgb(85, 218, 100);"/>
  <path d="M 34.008 173.689 L 97.369 174.1 C 97.369 174.1 96.597 180.271 94.703 184.691 C 92.809 189.111 90.359 193.139 87.891 195.7 C 85.423 198.261 83.517 200.028 79.153 202.376 C 74.789 204.724 70.997 206.114 65.894 206.192 C 60.791 206.27 57.022 205.228 53.551 203.936 C 50.08 202.644 45.616 199.164 43.806 197.027 C 41.996 194.89 38.298 191.127 36.271 184.761 C 34.244 178.395 34.008 173.894 34.008 173.689 Z" style="stroke: black; fill: rgb(32, 41, 2);"/>
  <path d="M 0.48 173.841 L 33.585 173.266 C 33.585 173.266 34.173 177.823 34.761 180.616 C 35.349 183.409 36.525 186.79 36.525 186.79 L 7.825 203.888 C 7.825 203.888 5.619 199.794 4.157 195.717 C 2.695 191.64 1.734 189.761 0.999 184.616 C 0.264 179.471 0.48 174.282 0.48 173.841 Z" style="stroke: black; fill: rgb(135, 164, 39);"/>
  <path d="M 36.231 187.084 C 35.731 187.103 38.732 191.938 41.964 195.757 C 45.196 199.576 48.579 201.784 48.579 201.784 L 30.642 235.158 C 30.623 235.197 24.536 228.98 21.356 225.083 C 18.286 221.32 15.737 218.055 13.091 213.645 C 10.445 209.235 8.271 204.672 8.271 204.672 L 36.231 187.084 Z" style="stroke: black; fill: rgb(87, 113, 1);"/>
  <path d="M 49.02 202.078 C 49.02 202.078 52.107 203.989 56.664 205.312 C 61.221 206.635 67.395 206.341 67.395 206.341 L 66.807 247.059 C 66.807 247.059 59.751 247.206 54.312 246.324 C 48.873 245.442 43.14 242.796 39.759 241.326 C 36.378 239.856 30.792 236.328 30.792 236.328 L 49.02 202.078 Z" style="stroke: black; fill: rgb(139, 24, 162);"/>
  <path d="M 67.836 206.194 C 67.836 206.194 72.834 205.753 76.215 204.43 C 79.596 203.107 81.948 201.196 81.948 201.196 L 102.527 233.829 C 102.527 233.829 97.382 238.533 94.442 240.15 C 91.502 241.767 84.299 244.707 79.89 245.883 C 75.481 247.059 67.101 247.206 67.101 247.206 L 67.836 206.194 Z" style="stroke: black; fill: rgb(77, 91, 31);"/>
  <path d="M 82.83 201.049 C 82.83 201.049 86.798 198.109 89.003 195.463 C 91.208 192.817 93.854 188.113 93.854 188.113 L 122.078 207.664 C 122.078 207.664 120.167 211.78 118.109 215.161 C 116.051 218.542 113.111 221.923 110.759 224.863 C 108.407 227.803 102.821 233.388 102.821 233.388 L 82.83 201.049 Z" style="stroke: black; fill: rgb(124, 156, 18);"/>
  <path d="M 94.001 187.525 C 94.001 187.525 95.912 183.85 96.647 181.204 C 97.382 178.558 98.264 174.295 98.264 174.295 L 130.751 174.001 C 130.751 174.001 131.045 177.088 130.604 180.763 C 130.163 184.438 129.428 187.819 128.693 190.612 C 127.958 193.405 126.635 198.109 125.459 201.196 C 124.283 204.283 122.372 207.076 122.372 207.076 L 94.001 187.525 Z" style="stroke: black; fill: rgb(166, 187, 97);"/>
  <path d="M 76.945 252.858 C 76.945 252.858 129.722 253.233 129.869 253.233 C 130.016 253.233 131.988 247.469 134.862 243.161 C 137.736 238.853 139.925 237.016 143.246 234.113 C 146.567 231.21 149.709 230.057 152.213 228.831 C 154.717 227.605 165.019 225.487 165.019 225.487 L 131.045 225.891 L 130.898 180.028 C 130.898 180.028 128.496 193.998 127.163 198.109 C 125.83 202.22 123.264 207.223 121.059 211.486 C 118.854 215.749 111.82 225.318 108.499 228.694 C 105.178 232.07 103.049 235.23 97.671 238.924 C 92.293 242.618 89.363 243.547 85.182 245.001 C 81.001 246.455 77.021 247.201 77.021 247.201 C 77.021 247.201 76.798 253.152 76.945 252.858 Z" style="stroke: black; fill: rgb(128, 49, 12);"/>
  <path d="M 0.489 252.575 C 0.489 252.575 42.771 253.036 42.87 253.036 C 42.969 253.036 43.263 243.504 43.263 243.504 C 43.263 243.504 39.749 242.585 34.112 238.799 C 28.475 235.013 27.412 233.122 24.831 230.334 C 22.25 227.546 17.885 222.164 15.4 218.578 C 12.915 214.992 8.448 207.334 7.13 204.378 C 5.812 201.422 5.156 200.657 3.554 195.325 C 1.952 189.993 0.508 180.656 0.508 180.657 L 0.489 252.575 Z" style="stroke: black; fill: rgb(186, 218, 85);"/>
  <path d="M 130.445 0.495 L 170.135 0.504 L 170.001 224.915 L 131.616 225.182 L 130.445 0.495 Z" style="stroke: black; fill: rgb(92, 218, 85);"/>
  <path d="M 171.123 0.507 L 207.415 0.501 L 207.899 78.595 L 170.937 79.034 C 170.937 79.034 171.123 0.507 171.123 0.507 Z" style="stroke: black; fill: rgb(35, 37, 30);"/>
  <path d="M 0.48 0.506 L 129.468 0.5 L 130.194 38.065 L 0.505 37.767 L 0.48 0.506 Z" style="stroke: black; fill: rgb(39, 43, 25);"/>
  <path d="M 170.982 79.661 L 207.484 79.373 L 207.992 115.489 L 170.859 115.319 L 170.982 79.661 Z" style="stroke: black; fill: rgb(101, 21, 97);"/>
  <path d="M 170.835 115.879 L 207.567 115.968 L 207.656 161.751 L 170.835 161.484 L 170.835 115.879 Z" style="stroke: black; fill: rgb(121, 134, 75);"/>
  <path d="M 385.381 0.476 L 426.918 0.514 L 426.603 230.75 L 383.363 230.462 L 385.381 0.476 Z" style="stroke: black; fill: rgb(121, 134, 75);"/>
  <path d="M 340.026 0.467 L 384.431 0.466 L 384.516 90.077 L 340.412 89.788 L 340.026 0.467 Z" style="stroke: black; fill: rgb(90, 30, 15);"/>
  <path d="M 346.657 90.54 L 383.86 90.941 L 383.994 123.996 L 346.657 124.13 L 346.657 90.54 Z" style="stroke: black; fill: rgb(23, 144, 33);"/>
  <path d="M 346.861 124.849 L 383.593 124.531 L 383.726 164.411 L 346.791 164.411 L 346.861 124.849 Z" style="stroke: black; fill: rgb(23, 144, 33);"/>
  <path d="M 195.522 401.787 L 195.377 457.508 L 363.261 457.504 L 362.938 401.977 L 195.522 401.787 Z" style="stroke: black; fill: rgb(119, 112, 14);"/>
  <path d="M 135.04 401.219 L 195.143 401.598 L 194.385 457.519 L 136.433 457.488 L 135.04 401.219 Z" style="stroke: black; fill: rgb(210, 64, 35);"/>
  <path d="M 130.463 253.257 C 130.463 253.257 134.383 244.092 137.491 240.271 C 140.599 236.45 144.291 233.418 149.068 230.846 C 153.845 228.274 157.377 226.915 162.74 226.195 C 168.103 225.475 172.754 225.885 177.539 226.66 C 182.324 227.435 184.39 228.644 187.405 230.001 C 190.42 231.358 198.595 237.964 200.936 241.136 C 203.277 244.308 206.526 247.99 207.435 251.178 C 208.344 254.366 208.213 260.602 207.843 266.788 C 207.473 272.974 206.769 276.05 204.823 280.813 C 202.877 285.576 200.97 289.472 198.394 293.367 C 195.818 297.262 192.404 300.222 187.969 303.293 C 183.534 306.364 176.954 308.933 166.939 308.003 C 156.924 307.073 151.323 303.691 147.094 301.266 C 142.865 298.841 139.083 294.869 135.819 290.467 C 132.555 286.065 130.317 279.569 129.613 276.659 C 128.909 273.749 128.543 269.24 128.684 264.871 C 128.825 260.502 130.322 253.398 130.463 253.257 Z" style="stroke: black; fill: rgb(218, 85, 178);"/>
  <path d="M 308.163 104.531 C 309.745 103.822 311.34 103.48 313.034 103.417 C 314.728 103.354 316.237 103.326 318.137 103.756 C 320.037 104.186 321.581 104.868 322.829 105.795 C 324.077 106.722 325.387 107.81 326.104 108.657 C 326.821 109.504 327.943 111.52 328.342 112.583 C 328.741 113.646 328.96 114.998 328.96 116.105 C 328.96 117.212 329.056 118.694 328.389 121.008 C 327.722 123.322 326.764 124.694 325.516 126.096 C 324.268 127.498 322.154 129.281 319.632 130.241 C 317.11 131.201 314.822 131.407 312.987 131.239 C 311.152 131.071 308.66 130.506 306.781 129.384 C 304.902 128.262 302.748 126.01 301.761 123.951 C 300.774 121.892 300.384 119.933 300.226 118.601 C 300.068 117.269 300.033 115.962 300.318 114.447 C 300.603 112.932 301.021 111.701 301.648 110.449 C 302.275 109.197 302.837 108.445 304.12 107.157 C 305.403 105.869 306.496 105.279 308.163 104.531 Z" style="stroke: black; fill: rgb(128, 124, 241);"/>
  <path d="M 353.983 255.14 C 354.817 251.617 356.88 247.66 358.421 245.227 C 359.962 242.794 361.302 240.821 363.936 238.293 C 366.57 235.765 368.959 234.608 371.609 233.559 C 374.259 232.51 378.356 231.865 381.126 231.757 C 383.896 231.649 386.344 232.025 388.826 232.651 C 391.308 233.277 393.722 234.13 396.17 235.67 C 398.618 237.21 399.291 237.76 402.512 241.454 C 405.733 245.148 407.506 248.932 408.298 251.15 C 409.09 253.368 409.765 256.277 409.792 259.824 C 409.819 263.371 409.734 264.84 408.717 267.864 C 407.7 270.888 407.01 272.396 405.249 275.114 C 403.488 277.832 400.958 280.699 398.665 282.363 C 396.372 284.027 392.864 286.258 389.122 287.394 C 385.38 288.531 380.32 289.202 375.721 288.367 C 371.122 287.532 368.643 285.672 366.443 283.991 C 364.243 282.31 362.204 280.366 360.271 277.925 C 358.338 275.484 356.618 273.059 355.61 270.675 C 354.602 268.291 354.026 265.648 353.687 263.056 C 353.348 260.464 353.431 257.469 353.983 255.14 Z" style="stroke: black; fill: rgb(186, 218, 85);"/>
  <path d="M 427.908 0.508 L 574.515 0.469 L 574.497 35.272 L 427.658 36.089 L 427.908 0.508 Z" style="stroke: black; fill: rgb(145, 171, 60);"/>
  <path d="M 469.984 306.364 L 574.497 308.089 L 574.496 456.401 L 469.984 306.364 Z" style="stroke: black; fill: rgb(113, 98, 73);"/>
  <path d="M 469.465 307.351 L 574.043 457.493 L 464.449 457.504 L 469.465 307.351 Z" style="stroke: black; fill: rgb(53, 113, 117);"/>
  <text x="52.148" y="16.517" style="font-size: 16px; font-family: Roboto; fill: rgb(14, 1, 1);" transform="">1</text>
</svg>